PathFileType	4	(X/Y/Z)	Walk4.trc
DataRate	CameraRate	NumFrames	NumMarkers	Units	OrigDataRate	OrigDataStartFrame	OrigNumFrames
200.000000	200.000000	8	58	mm	200.000000	414	454
Frame#	Times		LFHD		RFHD		RBHD		C7		CLAV		STRN		RBack		RASI		LPSI		RACR1		RUA1		RElbow		RFA1		RWRR		RCAR		LACR1		LUA1		LElbow		LFA1		LWRR		LWRU		LCAR		RTH1		RTH3		RTH2		RTH4		RLFC		RTB1		RTB3		RTB2		RTB4		RLMAL		RMMAL		RCAL		RMT1		RMT5		RToe		LTH1		LTH3		LTH2		LTH4		LLFC		LTB1		LTB3		LTB2		LTB4		LLMAL		LMT5		LToe		RWRU		LBHD		T10		LMMAL		RPSI		LASI		LElbowM		LMT1		LCAL
			X1	Y1	Z1	X2	Y2	Z2	X3	Y3	Z3	X4	Y4	Z4	X5	Y5	Z5	X6	Y6	Z6	X7	Y7	Z7	X8	Y8	Z8	X9	Y9	Z9	X10	Y10	Z10	X11	Y11	Z11	X12	Y12	Z12	X13	Y13	Z13	X14	Y14	Z14	X15	Y15	Z15	X16	Y16	Z16	X17	Y17	Z17	X18	Y18	Z18	X19	Y19	Z19	X20	Y20	Z20	X21	Y21	Z21	X22	Y22	Z22	X23	Y23	Z23	X24	Y24	Z24	X25	Y25	Z25	X26	Y26	Z26	X27	Y27	Z27	X28	Y28	Z28	X29	Y29	Z29	X30	Y30	Z30	X31	Y31	Z31	X32	Y32	Z32	X33	Y33	Z33	X34	Y34	Z34	X35	Y35	Z35	X36	Y36	Z36	X37	Y37	Z37	X38	Y38	Z38	X39	Y39	Z39	X40	Y40	Z40	X41	Y41	Z41	X42	Y42	Z42	X43	Y43	Z43	X44	Y44	Z44	X45	Y45	Z45	X46	Y46	Z46	X47	Y47	Z47	X48	Y48	Z48	X49	Y49	Z49	X50	Y50	Z50	X51	Y51	Z51	X52	Y52	Z52	X53	Y53	Z53	X54	Y54	Z54	X55	Y55	Z55	X56	Y56	Z56	X57	Y57	Z57	X58	Y58	Z58

414	2.07	908.49	1608	-61.066	908.47	1604.1	33.491	755.04	1555.3	49.231	723.83	1423.4	-17.936	865.39	1351.5	-17.21	929.02	1250.5	-4.1251	670.29	1328.2	84.94	904.16	990.42	148.35	677.8	971.41	-55.088	793.24	1386.1	137.46	761.02	1204.6	233.54	703.82	1086.2	252.81	703.12	939.81	271.77	779.91	837.9	244.79	781.75	784.73	294.97	806.07	1385.4	-174	826.14	1204.4	-266.55	815.04	1075.7	-294.86	854.81	943.09	-304.93	944.96	856.09	-248.43	904.17	836.33	-306.3	974.4	814.87	-287.92	858.7	747	220.49	926.59	591.18	187.63	946.47	693.33	203.85	892.21	667.94	202.3	956.53	514.02	168.81	971.21	351.35	107.69	881.31	204.81	96.501	897.2	291.3	152.91	926.62	277.06	98.919	792.15	118.45	110.39	822.47	119.44	32.954	725.97	105.88	62.9	896.73	52.654	66.574	856.04	51.311	131.6	948.28	42.43	105.96	834.72	762.33	-220.04	815.91	603.31	-159.89	880.29	686.9	-168.5	824.82	683.58	-184.8	805.43	482.08	-126.43	834.99	337.74	-45.658	804.38	168.43	-47.533	800.6	254.8	-103.61	818.86	252.6	-45.03	757.24	59.472	-72.725	841.26	23.954	-81.507	935.86	26.509	-22.732	720.81	832.35	284.48	758.96	1553.9	-92.464	662.82	1154.4	-21.942	763.39	67.426	9.7868	672.53	971.8	33.958	930.55	973.52	-140.27	774.59	1043	-229.37	866.58	31.397	-0.39448	689.59	31.758	-42.759
415	2.075	913.81	1607.7	-60.821	913.68	1603.8	33.739	760.27	1554.9	49.278	729.11	1423.2	-17.942	870.61	1351.2	-17.078	934.14	1250.2	-3.9216	675.38	1327.9	84.771	909.44	990.1	147.98	682.55	971.13	-54.487	798.3	1385.8	137.55	765.61	1204.3	233.51	708.16	1086	252.56	707.1	939.57	271.45	784.09	837.62	244.93	785.57	784.51	295.27	811.58	1385.2	-173.84	832.64	1204.5	-266.6	822.4	1075.9	-295.25	863.57	943.6	-304.99	954.39	857.7	-247.88	914.09	837.33	-305.86	984.47	816.77	-287.18	864.55	747.11	220.85	933.39	591.82	187.34	952.68	694	204.14	898.52	668.31	202.37	963.57	514.71	168.26	981.72	352.07	107.18	896.59	202.82	96.323	909.72	289.81	152.56	939.52	276.42	98.551	810.09	113.78	110.3	840.82	115.12	33.01	744.44	99.03	62.668	916.84	51.382	67.161	875.99	48.837	132.01	968.59	43.084	106.68	838.27	762.03	-220.18	817.94	603.29	-159.79	883.14	686.17	-168.56	827.62	683.43	-184.79	806.67	482.05	-126.53	835.78	337.59	-45.744	804.72	168.37	-47.568	801.14	254.74	-103.65	819.39	252.5	-45.092	757.29	59.551	-72.638	841.27	23.929	-81.529	936.01	26.357	-22.688	724.66	832	284.07	764.37	1553.5	-92.374	667.81	1154.2	-22.102	763.54	67.364	9.8968	677.5	971.52	34.589	934.97	973.09	-140.79	781.79	1042.8	-230.09	866.75	31.28	-0.34043	689.57	31.927	-42.711
416	2.08	919.13	1607.4	-60.563	918.9	1603.5	33.998	765.5	1554.5	49.34	734.38	1422.9	-17.931	875.82	1350.9	-16.945	939.27	1249.8	-3.7515	680.47	1327.7	84.628	914.71	989.72	147.65	687.31	970.8	-53.863	803.37	1385.5	137.65	770.23	1203.9	233.49	712.54	1085.7	252.34	711.1	939.29	271.15	788.3	837.29	245.11	789.43	784.26	295.59	817.08	1385	-173.67	839.15	1204.7	-266.62	829.75	1076.1	-295.61	872.3	944.08	-305.03	963.75	859.26	-247.32	923.95	838.31	-305.39	994.46	818.64	-286.43	870.44	747.17	221.23	940.04	592.34	187.01	958.85	694.53	204.36	904.78	668.61	202.42	970.36	515.25	167.68	992.09	352.76	106.66	911.91	200.89	96.192	922.19	288.34	152.23	952.37	275.79	98.209	828.19	109.22	110.26	859.36	110.88	33.122	763.19	92.306	62.502	937	50.285	67.849	896.02	46.47	132.43	988.88	43.893	107.48	841.85	761.69	-220.32	820.05	603.25	-159.69	886.05	685.43	-168.61	830.46	683.28	-184.79	807.99	482	-126.62	836.63	337.42	-45.828	805.09	168.3	-47.6	801.71	254.68	-103.69	819.97	252.39	-45.152	757.35	59.633	-72.548	841.26	23.911	-81.557	936.17	26.211	-22.646	728.55	831.6	283.68	769.78	1553	-92.27	672.81	1154	-22.228	763.71	67.277	10.015	682.48	971.2	35.241	939.39	972.6	-141.26	789	1042.6	-230.77	866.9	31.164	-0.29301	689.55	32.11	-42.655
417	2.085	924.45	1607.1	-60.293	924.12	1603.1	34.267	770.74	1554	49.418	739.64	1422.6	-17.903	881.02	1350.5	-16.811	944.41	1249.3	-3.6139	685.58	1327.3	84.512	919.98	989.29	147.35	692.08	970.43	-53.22	808.44	1385.1	137.75	774.88	1203.5	233.48	716.95	1085.4	252.13	715.14	938.96	270.87	792.54	836.92	245.32	793.31	783.96	295.93	822.56	1384.8	-173.49	845.66	1204.8	-266.62	837.09	1076.2	-295.94	881	944.52	-305.05	973.06	860.79	-246.75	933.75	839.27	-304.9	1004.4	820.46	-285.66	876.38	747.2	221.61	946.52	592.76	186.65	964.98	694.93	204.52	910.98	668.83	202.45	976.92	515.63	167.05	1002.3	353.44	106.15	927.24	199.06	96.107	934.6	286.9	151.91	965.15	275.21	97.894	846.43	104.8	110.29	878.06	106.78	33.279	782.17	85.75	62.398	957.19	49.38	68.628	916.12	44.245	132.89	1009.1	44.871	108.37	845.45	761.33	-220.45	822.26	603.19	-159.57	889.03	684.67	-168.64	833.35	683.12	-184.79	809.39	481.93	-126.69	837.54	337.23	-45.908	805.47	168.22	-47.629	802.32	254.62	-103.73	820.59	252.27	-45.207	757.4	59.716	-72.457	841.24	23.899	-81.59	936.34	26.074	-22.608	732.47	831.17	283.31	775.18	1552.6	-92.154	677.83	1153.7	-22.317	763.88	67.18	10.138	687.48	970.84	35.91	943.82	972.05	-141.7	796.22	1042.3	-231.42	867.02	31.057	-0.25524	689.53	32.305	-42.59
418	2.09	929.78	1606.7	-60.013	929.35	1602.7	34.546	775.98	1553.5	49.512	744.9	1422.2	-17.856	886.23	1350.1	-16.675	949.57	1248.8	-3.5074	690.69	1327	84.425	925.25	988.81	147.1	696.86	970.03	-52.561	813.54	1384.7	137.86	779.56	1203.1	233.49	721.4	1085.1	251.94	719.21	938.59	270.6	796.83	836.51	245.57	797.22	783.62	296.3	828.02	1384.5	-173.31	852.18	1204.8	-266.59	844.42	1076.2	-296.25	889.65	944.94	-305.05	982.3	862.28	-246.16	943.49	840.2	-304.39	1014.2	822.24	-284.88	882.37	747.17	222	952.84	593.06	186.26	971.07	695.19	204.61	917.12	668.96	202.47	983.23	515.87	166.41	1012.4	354.1	105.64	942.57	197.32	96.064	946.95	285.5	151.62	977.86	274.67	97.609	864.79	100.55	110.37	896.89	102.86	33.471	801.37	79.403	62.353	977.4	48.685	69.485	936.27	42.2	133.38	1029.3	46.031	109.33	849.08	760.93	-220.58	824.58	603.11	-159.45	892.08	683.9	-168.65	836.3	682.96	-184.8	810.89	481.85	-126.75	838.53	337.03	-45.982	805.88	168.13	-47.651	802.96	254.54	-103.75	821.27	252.13	-45.257	757.46	59.802	-72.366	841.2	23.894	-81.628	936.5	25.949	-22.576	736.43	830.7	282.95	780.59	1552.1	-92.024	682.86	1153.4	-22.368	764.04	67.083	10.262	692.5	970.42	36.592	948.28	971.43	-142.1	803.44	1042	-232.02	867.1	30.967	-0.22954	689.51	32.51	-42.515
419	2.095	935.11	1606.3	-59.723	934.59	1602.3	34.834	781.23	1553	49.622	750.15	1421.7	-17.791	891.43	1349.6	-16.537	954.75	1248.3	-3.4301	695.81	1326.5	84.367	930.53	988.3	146.89	701.66	969.59	-51.891	818.64	1384.2	137.99	784.26	1202.6	233.51	725.88	1084.7	251.77	723.31	938.17	270.36	801.15	836.07	245.86	801.17	783.23	296.69	833.46	1384.2	-173.11	858.71	1204.8	-266.53	851.73	1076.3	-296.53	898.26	945.33	-305.02	991.47	863.73	-245.57	953.16	841.1	-303.87	1024	823.97	-284.08	888.39	747.1	222.4	959	593.24	185.84	977.12	695.31	204.64	923.19	669.01	202.47	989.32	515.94	165.74	1022.3	354.74	105.15	957.88	195.71	96.06	959.23	284.16	151.34	990.49	274.19	97.357	883.24	96.51	110.5	915.81	99.154	33.683	820.75	73.305	62.358	997.58	48.218	70.404	956.43	40.369	133.91	1049.3	47.384	110.35	852.74	760.51	-220.71	827.01	603	-159.33	895.2	683.12	-168.65	839.32	682.77	-184.8	812.49	481.75	-126.78	839.58	336.8	-46.048	806.31	168.03	-47.667	803.65	254.46	-103.76	821.99	251.98	-45.299	757.53	59.889	-72.276	841.16	23.897	-81.668	936.66	25.837	-22.554	740.44	830.19	282.62	785.98	1551.5	-91.88	687.91	1153	-22.379	764.21	66.991	10.385	697.55	969.97	37.283	952.75	970.76	-142.46	810.66	1041.7	-232.58	867.15	30.897	-0.21766	689.5	32.723	-42.43
420	2.1	940.43	1605.8	-59.424	939.84	1601.8	35.13	786.47	1552.4	49.75	755.39	1421.3	-17.707	896.63	1349.1	-16.396	959.95	1247.8	-3.3799	700.95	1326	84.34	935.81	987.75	146.73	706.49	969.11	-51.212	823.77	1383.7	138.12	788.99	1202.1	233.54	730.39	1084.3	251.64	727.46	937.71	270.14	805.51	835.59	246.17	805.15	782.8	297.1	838.88	1383.8	-172.91	865.24	1204.8	-266.44	859.04	1076.3	-296.77	906.83	945.69	-304.97	1000.6	865.12	-244.96	962.76	841.97	-303.33	1033.6	825.65	-283.28	894.44	746.97	222.81	964.98	593.29	185.41	983.11	695.28	204.59	929.19	668.96	202.45	995.18	515.85	165.05	1032.1	355.39	104.67	973.16	194.25	96.091	971.41	282.9	151.08	1003	273.79	97.139	901.75	92.702	110.68	934.79	95.709	33.896	840.29	67.488	62.407	1017.7	47.995	71.37	976.58	38.78	134.48	1069.3	48.942	111.43	856.45	760.05	-220.82	829.55	602.85	-159.2	898.4	682.33	-168.62	842.42	682.56	-184.8	814.2	481.63	-126.78	840.7	336.56	-46.104	806.77	167.91	-47.672	804.38	254.36	-103.76	822.76	251.81	-45.33	757.59	59.978	-72.189	841.11	23.907	-81.71	936.81	25.74	-22.542	744.49	829.64	282.31	791.37	1550.9	-91.723	692.98	1152.5	-22.35	764.37	66.906	10.508	702.62	969.48	37.979	957.24	970.03	-142.77	817.89	1041.4	-233.09	867.15	30.854	-0.22058	689.5	32.943	-42.334
421	2.105	945.77	1605.2	-59.117	945.09	1601.2	35.434	791.73	1551.7	49.895	760.62	1420.7	-17.604	901.83	1348.6	-16.253	965.16	1247.2	-3.354	706.09	1325.5	84.345	941.1	987.17	146.63	711.33	968.59	-50.527	828.91	1383.2	138.26	793.76	1201.6	233.59	734.94	1083.8	251.53	731.65	937.21	269.95	809.91	835.07	246.52	809.16	782.34	297.52	844.28	1383.4	-172.7	871.77	1204.7	-266.32	866.34	1076.2	-296.99	915.35	946.02	-304.9	1009.6	866.47	-244.35	972.29	842.8	-302.77	1043.2	827.27	-282.48	900.53	746.78	223.21	970.8	593.2	184.96	989.06	695.1	204.48	935.12	668.81	202.43	1000.8	515.62	164.35	1041.7	356.04	104.22	988.38	192.95	96.152	983.49	281.72	150.84	1015.4	273.47	96.955	920.3	89.155	110.91	953.77	92.55	34.097	859.94	61.983	62.49	1037.8	48.032	72.368	996.68	37.457	135.09	1089.1	50.716	112.55	860.21	759.57	-220.93	832.21	602.68	-159.06	901.68	681.53	-168.57	845.59	682.33	-184.8	816.03	481.49	-126.77	841.89	336.29	-46.146	807.25	167.79	-47.667	805.15	254.26	-103.74	823.59	251.62	-45.349	757.66	60.07	-72.105	841.05	23.922	-81.752	936.94	25.661	-22.539	748.59	829.06	282.03	796.76	1550.3	-91.552	698.07	1152.1	-22.279	764.53	66.831	10.629	707.73	968.94	38.679	961.76	969.25	-143.05	825.11	1041	-233.56	867.12	30.836	-0.23799	689.51	33.169	-42.229
